<svg width="128" height="128" viewBox="0 0 128 128" xmlns="http://www.w3.org/2000/svg">
    <rect width="128" height="128" fill="#2d2d2d"/>
    <path d="M64 96c-17.7 0-32-14.3-32-32s14.3-32 32-32 32 14.3 32 32-14.3 32-32 32zm0-56c-13.2 0-24 10.8-24 24s10.8 24 24 24 24-10.8 24-24-10.8-24-24-24z" fill="#fff"/>
    <circle cx="64" cy="64" r="16" fill="#fff"/>
    <path d="M104 36h-16l-4-8H44l-4 8H24c-4.4 0-8 3.6-8 8v48c0 4.4 3.6 8 8 8h80c4.4 0 8-3.6 8-8V44c0-4.4-3.6-8-8-8z" fill="#fff"/>
</svg> 